# xmcd
#
# Track frame offsets:
# 150
# 10608
# 20939
# 32922
# 43722
# 57068
# 66013
# 77424
# 91637
# 104733
# 121125
# 123425
#
# Disc length: 1750 seconds
#
#
# Revision: 0
# Processed by: cddbd v1.5.1PL0 Copyright (c) Steve Scherf et al.
# Submitted via: FreeRIP 2.90 
#
DISCID=9106d40c
DTITLE=Sidney Castel - Live at the Beaver Lodge
DYEAR=2002
DGENRE=Native American
TTITLE0=Bannock Without Beans
TTITLE1=Walking in the Sunshine
TTITLE2=Your Cheating Heart
TTITLE3=Winnipeg City
TTITLE4=He'll Have to Go
TTITLE5=The Cree Song
TTITLE6=I'm Just a Lonely Boy
TTITLE7=You Are My Sunshine
TTITLE8=The Thompson Song
TTITLE9=Green Green Grass of Home
TTITLE10=The End
TTITLE11=The Pukatawagan Song
EXTD=
EXTT0=
EXTT1=
EXTT2=
EXTT3=
EXTT4=
EXTT5=
EXTT6=
EXTT7=
EXTT8=
EXTT9=
EXTT10=
EXTT11=
PLAYORDER=
